<svg width="22" height="22" viewBox="0 0 22 22" fill="none" xmlns="http://www.w3.org/2000/svg">
<g clip-path="url(#clip0_56_309)">
<path fill-rule="evenodd" clip-rule="evenodd" d="M21.56 11.25C21.56 10.47 21.49 9.72 21.36 9H11V13.255H16.92C16.665 14.63 15.89 15.795 14.725 16.575V19.335H18.28C20.36 17.42 21.56 14.6 21.56 11.25Z" fill="#F26666"/>
<path fill-rule="evenodd" clip-rule="evenodd" d="M11 22.0001C13.97 22.0001 16.46 21.0151 18.28 19.3351L14.725 16.5751C13.74 17.2351 12.48 17.6251 11 17.6251C8.135 17.6251 5.71 15.6901 4.845 13.0901H1.17V15.9401C2.98 19.5351 6.7 22.0001 11 22.0001Z" fill="#F26666"/>
<path fill-rule="evenodd" clip-rule="evenodd" d="M4.845 13.0901C4.625 12.4301 4.5 11.7251 4.5 11.0001C4.5 10.2751 4.625 9.57006 4.845 8.91006V6.06006H1.17C0.425 7.54506 0 9.22506 0 11.0001C0 12.7751 0.425 14.4551 1.17 15.9401L4.845 13.0901Z" fill="#F26666"/>
<path fill-rule="evenodd" clip-rule="evenodd" d="M11 4.375C12.615 4.375 14.065 4.93 15.205 6.02L18.36 2.865C16.455 1.09 13.965 0 11 0C6.7 0 2.98 2.465 1.17 6.06L4.845 8.91C5.71 6.31 8.135 4.375 11 4.375Z" fill="#F26666"/>
</g>
<defs>
<clipPath id="clip0_56_309">
<rect width="22" height="22" rx="5.5" fill="white"/>
</clipPath>
</defs>
</svg>
