<svg width="126" height="29" viewBox="0 0 126 29" fill="none" xmlns="http://www.w3.org/2000/svg">
<path d="M6.12 6.05576C7.176 6.05576 8.096 6.22375 8.88 6.55975C9.68 6.89575 10.416 7.40775 11.088 8.09575L9.6 9.79976C9.072 9.33575 8.544 8.99175 8.016 8.76775C7.488 8.54375 6.92 8.43175 6.312 8.43175C5.64 8.43175 5.096 8.60775 4.68 8.95975C4.28 9.31176 4.08 9.79976 4.08 10.4238C4.08 10.8398 4.16 11.1918 4.32 11.4798C4.496 11.7678 4.8 12.0398 5.232 12.2958C5.664 12.5358 6.288 12.7998 7.104 13.0878C8.592 13.6318 9.696 14.2798 10.416 15.0318C11.152 15.7838 11.52 16.8638 11.52 18.2718C11.52 19.2478 11.288 20.1198 10.824 20.8878C10.36 21.6558 9.688 22.2638 8.808 22.7118C7.944 23.1438 6.928 23.3598 5.76 23.3598C3.568 23.3598 1.736 22.6078 0.264 21.1038L1.848 19.3518C2.456 19.8798 3.056 20.2798 3.648 20.5518C4.256 20.8238 4.92 20.9598 5.64 20.9598C6.456 20.9598 7.096 20.7358 7.56 20.2878C8.04 19.8398 8.28 19.2238 8.28 18.4398C8.28 17.7358 8.08 17.1838 7.68 16.7838C7.28 16.3678 6.52 15.9678 5.4 15.5838C3.8 15.0238 2.648 14.3598 1.944 13.5918C1.24 12.8238 0.888 11.8398 0.888 10.6398C0.888 9.75975 1.112 8.97575 1.56 8.28776C2.008 7.58376 2.632 7.03976 3.432 6.65575C4.232 6.25575 5.128 6.05576 6.12 6.05576ZM19.3457 23.0478C18.8977 24.5998 18.1777 25.8158 17.1857 26.6958C16.2097 27.5758 14.8897 28.0878 13.2257 28.2318L12.9137 26.0478C14.0017 25.8718 14.8097 25.5598 15.3377 25.1118C15.8657 24.6638 16.2977 23.9598 16.6337 22.9998H15.5537L11.9777 10.3038H15.0737L17.4977 21.0078L20.0177 10.3038H23.0417L19.3457 23.0478ZM30.9819 9.94376C31.9899 9.94376 32.7819 10.2798 33.3579 10.9518C33.9339 11.6238 34.2219 12.5358 34.2219 13.6878V22.9998H31.2219V14.0958C31.2219 13.4238 31.1099 12.9518 30.8859 12.6798C30.6779 12.3918 30.3659 12.2478 29.9499 12.2478C29.5179 12.2478 29.1179 12.4078 28.7499 12.7278C28.3819 13.0478 28.0219 13.5198 27.6699 14.1438V22.9998H24.6699V10.3038H27.2859L27.5019 11.9598C27.9659 11.3038 28.4779 10.8078 29.0379 10.4718C29.6139 10.1198 30.2619 9.94376 30.9819 9.94376ZM43.5913 9.94376C44.5993 9.94376 45.3913 10.2798 45.9673 10.9518C46.5433 11.6238 46.8313 12.5358 46.8313 13.6878V22.9998H43.8313V14.0958C43.8313 13.4238 43.7193 12.9518 43.4953 12.6798C43.2873 12.3918 42.9753 12.2478 42.5593 12.2478C42.1273 12.2478 41.7273 12.4078 41.3593 12.7278C40.9913 13.0478 40.6313 13.5198 40.2793 14.1438V22.9998H37.2793V10.3038H39.8953L40.1113 11.9598C40.5753 11.3038 41.0873 10.8078 41.6473 10.4718C42.2233 10.1198 42.8713 9.94376 43.5913 9.94376ZM55.5801 23.0478C55.1321 24.5998 54.4121 25.8158 53.4201 26.6958C52.4441 27.5758 51.1241 28.0878 49.4601 28.2318L49.1481 26.0478C50.2361 25.8718 51.0441 25.5598 51.5721 25.1118C52.1001 24.6638 52.5321 23.9598 52.8681 22.9998H51.7881L48.2121 10.3038H51.3081L53.7321 21.0078L56.2521 10.3038H59.2761L55.5801 23.0478ZM73.6412 14.2158C74.7292 14.4398 75.6012 14.8558 76.2572 15.4638C76.9132 16.0718 77.2412 16.9918 77.2412 18.2238C77.2412 19.8878 76.6652 21.1038 75.5132 21.8718C74.3772 22.6238 72.8092 22.9998 70.8092 22.9998H66.2732V6.41575H70.2332C72.2812 6.41575 73.8492 6.76776 74.9372 7.47176C76.0412 8.15976 76.5932 9.21575 76.5932 10.6398C76.5932 11.5998 76.3132 12.3838 75.7532 12.9918C75.2092 13.5838 74.5052 13.9918 73.6412 14.2158ZM69.3932 8.69576V13.2558H70.8092C71.6732 13.2558 72.3292 13.0558 72.7772 12.6558C73.2252 12.2558 73.4492 11.6718 73.4492 10.9038C73.4492 10.1198 73.2092 9.55976 72.7292 9.22376C72.2652 8.87176 71.5292 8.69576 70.5212 8.69576H69.3932ZM70.8332 20.6718C71.8732 20.6718 72.6652 20.4798 73.2092 20.0958C73.7532 19.7118 74.0252 19.0478 74.0252 18.1038C74.0252 16.3118 73.0252 15.4158 71.0252 15.4158H69.3932V20.6718H70.8332ZM82.3223 23.3598C81.3943 23.3598 80.6663 23.0878 80.1383 22.5438C79.6263 21.9998 79.3703 21.2398 79.3703 20.2638V5.21575L82.3703 4.90376V20.1678C82.3703 20.6798 82.5863 20.9358 83.0183 20.9358C83.2263 20.9358 83.4263 20.9038 83.6183 20.8398L84.2183 22.9038C83.6903 23.2078 83.0583 23.3598 82.3223 23.3598ZM90.6418 9.94376C92.3538 9.94376 93.6898 10.5198 94.6498 11.6718C95.6098 12.8238 96.0898 14.4798 96.0898 16.6398C96.0898 18.7198 95.6018 20.3598 94.6258 21.5598C93.6658 22.7598 92.3378 23.3598 90.6418 23.3598C88.9298 23.3598 87.5858 22.7758 86.6098 21.6078C85.6498 20.4238 85.1698 18.7678 85.1698 16.6398C85.1698 14.5438 85.6498 12.9038 86.6098 11.7198C87.5858 10.5358 88.9298 9.94376 90.6418 9.94376ZM90.6418 12.2238C89.8578 12.2238 89.2738 12.5758 88.8898 13.2798C88.5058 13.9678 88.3138 15.0878 88.3138 16.6398C88.3138 18.2078 88.5058 19.3438 88.8898 20.0478C89.2738 20.7358 89.8578 21.0798 90.6418 21.0798C91.4258 21.0798 92.0098 20.7278 92.3938 20.0238C92.7778 19.3198 92.9698 18.1918 92.9698 16.6398C92.9698 15.0718 92.7778 13.9438 92.3938 13.2558C92.0098 12.5678 91.4258 12.2238 90.6418 12.2238ZM105.383 22.3998C104.967 22.7198 104.503 22.9598 103.991 23.1198C103.495 23.2798 102.983 23.3598 102.455 23.3598C101.287 23.3598 100.391 23.0238 99.7673 22.3518C99.1593 21.6798 98.8553 20.7438 98.8553 19.5438V12.4638H97.1513V10.3038H98.8553V7.49576L101.855 7.13576V10.3038H104.519L104.207 12.4638H101.855V19.5198C101.855 19.9998 101.943 20.3598 102.119 20.5998C102.311 20.8238 102.607 20.9358 103.007 20.9358C103.439 20.9358 103.879 20.7998 104.327 20.5278L105.383 22.3998ZM113.586 22.3998C113.17 22.7198 112.706 22.9598 112.194 23.1198C111.698 23.2798 111.186 23.3598 110.658 23.3598C109.49 23.3598 108.594 23.0238 107.97 22.3518C107.362 21.6798 107.058 20.7438 107.058 19.5438V12.4638H105.354V10.3038H107.058V7.49576L110.058 7.13576V10.3038H112.722L112.41 12.4638H110.058V19.5198C110.058 19.9998 110.146 20.3598 110.322 20.5998C110.514 20.8238 110.81 20.9358 111.21 20.9358C111.642 20.9358 112.082 20.7998 112.53 20.5278L113.586 22.3998ZM119.423 9.94376C121.135 9.94376 122.471 10.5198 123.431 11.6718C124.391 12.8238 124.871 14.4798 124.871 16.6398C124.871 18.7198 124.383 20.3598 123.407 21.5598C122.447 22.7598 121.119 23.3598 119.423 23.3598C117.711 23.3598 116.367 22.7758 115.391 21.6078C114.431 20.4238 113.951 18.7678 113.951 16.6398C113.951 14.5438 114.431 12.9038 115.391 11.7198C116.367 10.5358 117.711 9.94376 119.423 9.94376ZM119.423 12.2238C118.639 12.2238 118.055 12.5758 117.671 13.2798C117.287 13.9678 117.095 15.0878 117.095 16.6398C117.095 18.2078 117.287 19.3438 117.671 20.0478C118.055 20.7358 118.639 21.0798 119.423 21.0798C120.207 21.0798 120.791 20.7278 121.175 20.0238C121.559 19.3198 121.751 18.1918 121.751 16.6398C121.751 15.0718 121.559 13.9438 121.175 13.2558C120.791 12.5678 120.207 12.2238 119.423 12.2238Z" fill="black"/>
</svg>
