<svg width="38" height="38" viewBox="0 0 38 38" fill="none" xmlns="http://www.w3.org/2000/svg">
<rect width="38" height="38" rx="10" fill="#FF9F9F"/>
<path fill-rule="evenodd" clip-rule="evenodd" d="M18 9C13.0294 9 9 13.0294 9 18C9 22.9706 13.0294 27 18 27C20.125 27 22.078 26.2635 23.6177 25.0319L27.2932 28.7071C27.6837 29.0976 28.3169 29.0976 28.7074 28.7071C29.0979 28.3166 29.0979 27.6834 28.7073 27.2929L25.0319 23.6177C26.2635 22.078 27 20.125 27 18C27 13.0294 22.9706 9 18 9ZM11 18C11 14.134 14.134 11 18 11C21.866 11 25 14.134 25 18C25 21.866 21.866 25 18 25C14.134 25 11 21.866 11 18Z" fill="white"/>
</svg>
