<svg width="60" height="65" viewBox="0 0 60 65" fill="none" xmlns="http://www.w3.org/2000/svg">
<g filter="url(#filter0_ddddd_29_142)">
<rect x="20" y="2" width="38" height="38" rx="10" fill="#F26666"/>
<path fill-rule="evenodd" clip-rule="evenodd" d="M38 11C33.0294 11 29 15.0294 29 20C29 24.9706 33.0294 29 38 29C40.125 29 42.078 28.2635 43.6177 27.0319L47.2932 30.7071C47.6837 31.0976 48.3169 31.0976 48.7074 30.7071C49.0979 30.3166 49.0979 29.6834 48.7073 29.2929L45.0319 25.6177C46.2635 24.078 47 22.125 47 20C47 15.0294 42.9706 11 38 11ZM31 20C31 16.134 34.134 13 38 13C41.866 13 45 16.134 45 20C45 23.866 41.866 27 38 27C34.134 27 31 23.866 31 20Z" fill="white"/>
</g>
<defs>
<filter id="filter0_ddddd_29_142" x="-9" y="0" width="69" height="65" filterUnits="userSpaceOnUse" color-interpolation-filters="sRGB">
<feFlood flood-opacity="0" result="BackgroundImageFix"/>
<feColorMatrix in="SourceAlpha" type="matrix" values="0 0 0 0 0 0 0 0 0 0 0 0 0 0 0 0 0 0 127 0" result="hardAlpha"/>
<feOffset/>
<feColorMatrix type="matrix" values="0 0 0 0 0.968627 0 0 0 0 0.470588 0 0 0 0 0.470588 0 0 0 0.1 0"/>
<feBlend mode="normal" in2="BackgroundImageFix" result="effect1_dropShadow_29_142"/>
<feColorMatrix in="SourceAlpha" type="matrix" values="0 0 0 0 0 0 0 0 0 0 0 0 0 0 0 0 0 0 127 0" result="hardAlpha"/>
<feOffset dx="-1" dy="1"/>
<feGaussianBlur stdDeviation="1.5"/>
<feColorMatrix type="matrix" values="0 0 0 0 0.968627 0 0 0 0 0.470588 0 0 0 0 0.470588 0 0 0 0.1 0"/>
<feBlend mode="normal" in2="effect1_dropShadow_29_142" result="effect2_dropShadow_29_142"/>
<feColorMatrix in="SourceAlpha" type="matrix" values="0 0 0 0 0 0 0 0 0 0 0 0 0 0 0 0 0 0 127 0" result="hardAlpha"/>
<feOffset dx="-5" dy="4"/>
<feGaussianBlur stdDeviation="3"/>
<feColorMatrix type="matrix" values="0 0 0 0 0.968627 0 0 0 0 0.470588 0 0 0 0 0.470588 0 0 0 0.09 0"/>
<feBlend mode="normal" in2="effect2_dropShadow_29_142" result="effect3_dropShadow_29_142"/>
<feColorMatrix in="SourceAlpha" type="matrix" values="0 0 0 0 0 0 0 0 0 0 0 0 0 0 0 0 0 0 127 0" result="hardAlpha"/>
<feOffset dx="-10" dy="9"/>
<feGaussianBlur stdDeviation="4"/>
<feColorMatrix type="matrix" values="0 0 0 0 0.968627 0 0 0 0 0.470588 0 0 0 0 0.470588 0 0 0 0.05 0"/>
<feBlend mode="normal" in2="effect3_dropShadow_29_142" result="effect4_dropShadow_29_142"/>
<feColorMatrix in="SourceAlpha" type="matrix" values="0 0 0 0 0 0 0 0 0 0 0 0 0 0 0 0 0 0 127 0" result="hardAlpha"/>
<feOffset dx="-19" dy="15"/>
<feGaussianBlur stdDeviation="5"/>
<feColorMatrix type="matrix" values="0 0 0 0 0.968627 0 0 0 0 0.470588 0 0 0 0 0.470588 0 0 0 0.01 0"/>
<feBlend mode="normal" in2="effect4_dropShadow_29_142" result="effect5_dropShadow_29_142"/>
<feBlend mode="normal" in="SourceGraphic" in2="effect5_dropShadow_29_142" result="shape"/>
</filter>
</defs>
</svg>
