<svg width="20" height="20" viewBox="0 0 20 20" fill="none" xmlns="http://www.w3.org/2000/svg">
<path fill-rule="evenodd" clip-rule="evenodd" d="M9 -0.000244141C4.02944 -0.000244141 0 4.02919 0 8.99976C0 13.9703 4.02944 17.9998 9 17.9998C11.125 17.9998 13.078 17.2633 14.6177 16.0316L18.2932 19.7069C18.6837 20.0974 19.3169 20.0974 19.7074 19.7068C20.0979 19.3163 20.0979 18.6831 19.7073 18.2926L16.0319 14.6174C17.2635 13.0778 18 11.1248 18 8.99976C18 4.02919 13.9706 -0.000244141 9 -0.000244141ZM2 8.99976C2 5.13376 5.13401 1.99976 9 1.99976C12.866 1.99976 16 5.13376 16 8.99976C16 12.8657 12.866 15.9998 9 15.9998C5.13401 15.9998 2 12.8657 2 8.99976Z" fill="white"/>
</svg>
